<?xml version="1.0" encoding="UTF-8" standalone="no"?>
<!-- Created with Inkscape (http://www.inkscape.org/) -->

<svg
   xmlns:dc="http://purl.org/dc/elements/1.1/"
   xmlns:cc="http://creativecommons.org/ns#"
   xmlns:rdf="http://www.w3.org/1999/02/22-rdf-syntax-ns#"
   xmlns:svg="http://www.w3.org/2000/svg"
   xmlns="http://www.w3.org/2000/svg"
   xmlns:xlink="http://www.w3.org/1999/xlink"
   xmlns:sodipodi="http://sodipodi.sourceforge.net/DTD/sodipodi-0.dtd"
   xmlns:inkscape="http://www.inkscape.org/namespaces/inkscape"
   width="1270mm"
   height="1270.0004mm"
   viewBox="0 0 4499.9999 4500.0013"
   id="svg4434"
   version="1.1"
   inkscape:version="0.91 r13725"
   sodipodi:docname="shadow_logo_final.svg">
  <defs
     id="defs4436">
    <linearGradient
       inkscape:collect="always"
       id="linearGradient6620">
      <stop
         style="stop-color:#ffffff;stop-opacity:1;"
         offset="0"
         id="stop6604" />
      <stop
         style="stop-color:#ffffff;stop-opacity:0;"
         offset="1"
         id="stop6606" />
    </linearGradient>
    <linearGradient
       inkscape:collect="always"
       xlink:href="#linearGradient6620"
       id="linearGradient6612"
       x1="1387.1295"
       y1="4884.8911"
       x2="798.50177"
       y2="5784.8911"
       gradientUnits="userSpaceOnUse"
       gradientTransform="translate(-1448.1529,-2888.6629)" />
  </defs>
  <sodipodi:namedview
     id="base"
     pagecolor="#ffffff"
     bordercolor="#666666"
     borderopacity="1.0"
     inkscape:pageopacity="0.0"
     inkscape:pageshadow="2"
     inkscape:zoom="0.093303299"
     inkscape:cx="3450.0686"
     inkscape:cy="2305.8249"
     inkscape:document-units="px"
     inkscape:current-layer="layer3"
     showgrid="false"
     fit-margin-top="0"
     fit-margin-left="0"
     fit-margin-right="0"
     fit-margin-bottom="0"
     inkscape:object-paths="false"
     inkscape:snap-bbox="true"
     inkscape:window-width="1440"
     inkscape:window-height="718"
     inkscape:window-x="0"
     inkscape:window-y="27"
     inkscape:window-maximized="1" />
  <metadata
     id="metadata4439">
    <rdf:RDF>
      <cc:Work
         rdf:about="">
        <dc:format>image/svg+xml</dc:format>
        <dc:type
           rdf:resource="http://purl.org/dc/dcmitype/StillImage" />
        <dc:title></dc:title>
      </cc:Work>
    </rdf:RDF>
  </metadata>
  <g
     inkscape:groupmode="layer"
     id="layer3"
     inkscape:label="Sketch"
     transform="translate(6057.3833,1507.2576)">
    <g
       id="g4170"
       transform="matrix(0.99855299,0,0,0.97574186,-4268.3654,-63.462818)">
      <circle
         r="799.47742"
         cy="-205.85522"
         cx="589.80884"
         id="path6622"
         style="opacity:1;fill:#ffffff;fill-opacity:1;stroke:#ffffff;stroke-width:1;stroke-linejoin:miter;stroke-miterlimit:4;stroke-dasharray:none;stroke-dashoffset:0;stroke-opacity:1" />
      <ellipse
         ry="2281.1533"
         rx="2243.2605"
         cy="841.03412"
         cx="461.65015"
         id="path4528"
         style="fill:#000000;fill-opacity:1;fill-rule:evenodd;stroke:#ffffff;stroke-width:20;stroke-linecap:butt;stroke-linejoin:miter;stroke-miterlimit:4;stroke-dasharray:none;stroke-opacity:1" />
      <path
         sodipodi:nodetypes="ccc"
         inkscape:connector-curvature="0"
         id="path5070"
         d="m 176.21217,480.40967 -412.0784,1524.58473 -632.3571,635.3489"
         style="fill:none;fill-opacity:1;fill-rule:evenodd;stroke:none;stroke-width:10;stroke-linecap:butt;stroke-linejoin:miter;stroke-miterlimit:4;stroke-dasharray:none;stroke-opacity:1" />
      <path
         inkscape:connector-curvature="0"
         id="path5072"
         d="m 529.68167,561.21578 -335.0541,1573.73902 -467.506,823.7132"
         style="fill:none;fill-opacity:1;fill-rule:evenodd;stroke:none;stroke-width:10;stroke-linecap:butt;stroke-linejoin:miter;stroke-miterlimit:4;stroke-dasharray:none;stroke-opacity:1" />
      <path
         sodipodi:nodetypes="ccc"
         inkscape:connector-curvature="0"
         id="path5082"
         d="M 177.33727,486.63124 C 94.703975,422.01809 75.726475,428.58928 -12.123425,353.54294 -151.22343,248.358 -195.55633,84.664146 -221.96483,5.3971774"
         style="fill:none;fill-opacity:1;fill-rule:evenodd;stroke:none;stroke-width:1;stroke-linecap:butt;stroke-linejoin:miter;stroke-miterlimit:4;stroke-dasharray:none;stroke-opacity:1" />
      <path
         sodipodi:nodetypes="cccccccccc"
         inkscape:connector-curvature="0"
         id="path5084"
         d="m -222.00723,5.3189674 c -23.1993,-150.1885374 -28.9469,-251.0470874 10.2179,-503.0727874 24.3127,-201.41752 165.598005,-295.60137 305.454605,-390.9091 287.645695,-118.35618 449.505595,-121.01878 629.523935,-113.02978 -180.80184,60.22038 -280.70304,171.04168 -340.43304,274.84796 -68.436,109.43939 -91.7185,202.68637 -100.4196,298.18182 l -10.4895,265.45455 c -1.3818,122.380958 4.4697,197.538566 12.7273,272.72727 13.8053,172.64152 51.6673,216.5736 89.0909,285.45454 45.7873,58.62151 99.1365,113.46204 154.5454,167.27273"
         style="fill:none;fill-opacity:1;fill-rule:evenodd;stroke:none;stroke-width:10;stroke-linecap:butt;stroke-linejoin:miter;stroke-miterlimit:4;stroke-dasharray:none;stroke-opacity:1" />
      <path
         sodipodi:nodetypes="cccc"
         inkscape:connector-curvature="0"
         id="path5086"
         d="M 648.96399,-942.31054 C 1602.3951,-1164.4191 1671.9013,400.81161 1006.7562,566.3449 l 197.0909,1447.9022 -1023.10753,111.9825"
         style="color:#000000;clip-rule:nonzero;display:inline;overflow:visible;visibility:visible;opacity:1;isolation:auto;mix-blend-mode:normal;color-interpolation:sRGB;color-interpolation-filters:linearRGB;solid-color:#000000;solid-opacity:1;fill:none;fill-opacity:1;fill-rule:evenodd;stroke:#ffffff;stroke-width:25;stroke-linecap:butt;stroke-linejoin:round;stroke-miterlimit:4;stroke-dasharray:none;stroke-dashoffset:0;stroke-opacity:1;color-rendering:auto;image-rendering:auto;shape-rendering:auto;text-rendering:auto;enable-background:accumulate" />
      <path
         sodipodi:nodetypes="cccc"
         inkscape:connector-curvature="0"
         id="path5088"
         d="M 1201.4041,2019.0963 899.26747,2406.1749 1215.7374,2018.4136 1006.1976,566.5659"
         style="color:#000000;clip-rule:nonzero;display:inline;overflow:visible;visibility:visible;opacity:1;isolation:auto;mix-blend-mode:normal;color-interpolation:sRGB;color-interpolation-filters:linearRGB;solid-color:#000000;solid-opacity:1;fill:#ffffff;fill-opacity:1;fill-rule:evenodd;stroke:#ffffff;stroke-width:1;stroke-linecap:butt;stroke-linejoin:miter;stroke-miterlimit:4;stroke-dasharray:none;stroke-dashoffset:0;stroke-opacity:1;color-rendering:auto;image-rendering:auto;shape-rendering:auto;text-rendering:auto;enable-background:accumulate" />
      <path
         inkscape:connector-curvature="0"
         id="path5090"
         d="m 134.90657,3044.3376 c -139.5424952,-23.1091 -354.2051,-78.7179 -371.8038,-96.3165 -8.7671,-8.7671 60.3361,-142.7542 206.611305,-400.6083 120.8813,-213.0895 223.829995,-391.4305 228.774895,-396.3134 4.9448,-4.883 213.8442,-45.033 464.2208,-89.2224 250.37664,-44.1894 472.30943,-83.8798 493.18383,-88.2009 35.9832,-7.4486 33.4143,-2.2342 -49.4816,100.4376 -48.0892,59.5618 -87.4351,114.9743 -87.4351,123.1389 0,16.3602 185.1207,-162.1067 224.7092,-216.6326 24.6669,-33.9739 24.5116,-35.2562 -22.3746,-184.7311 -42.3048,-134.8688 -55.023,-214.9529 -122.3149,-770.1954 l -75.1008,-619.67592 81.4659,-120.1563 c 127.316,-187.781796 177.2402,-349.719994 176.8274,-573.5711 -0.2943,-159.7691 -26.4262,-306.1467 -70.0069,-392.1489 -57.5383,-113.5465 -156.4215,-220.9771 -242.13589,-263.0662 -73.9815,-36.3279 -84.0186,-37.6705 -314.23094,-42.033 -205.9525,-3.9028 -253.6766,-0.7823 -356.2672,23.295 -154.3724,36.2301 -258.609895,88.2032 -358.870595,178.934 -108.985605,98.6262 -143.077405,171.4 -170.084505,363.0684 -28.5145,202.367 -18.3366,386.503706 28.2197,510.551104 57.2606,152.568496 125.406005,236.205496 273.255705,335.375296 45.446895,30.4834 84.992495,57.3618 87.879195,59.7297 2.8866,2.368 -86.178795,342.9153 -197.922995,756.77212 l -203.171405,752.4666 -312.4615,312.2582 -312.4616,312.2581 -49.5337,-37.7812 C -1001.0496,2516.7965 -1143.5398,2376.7413 -1229.9699,2272.9753 -1737.274,1663.9175 -1895.7294,844.43368 -1651.1135,94.947484 -1297.1067,-989.70492 -205.19823,-1638.6313 892.04631,-1416.4643 c 205.55709,41.6206 355.44669,93.6876 555.77069,193.0576 219.1712,108.7191 380.7445,227.08898 574.2731,420.71688 470.1763,470.4176 702.7009,1096.3857 657.3123,1769.5183 -68.1936,1011.34432 -791.4433,1844.75972 -1785.77869,2057.78932 -172.4478,36.9459 -589.28014,47.7797 -758.71714,19.7198 z"
         style="opacity:0;fill:#000000;fill-opacity:1;stroke:#000000;stroke-width:39.5852356;stroke-miterlimit:4;stroke-dasharray:none;stroke-opacity:1" />
      <path
         inkscape:connector-curvature="0"
         id="path5092"
         d="m 221.40417,2045.2486 c 9.6828,-45.7586 83.2487,-391.308 163.4799,-767.8875 80.2312,-376.57972 145.8749,-694.49932 145.8749,-706.48822 0,-11.9889 -27.0206,-48.2699 -60.0457,-80.6244 -158.9196,-155.6924 -184.0981,-245.2005 -183.5768,-652.605 0.352,-275.101 3.1111,-312.2741 29.4988,-397.4363 57.7702,-186.4443 183.1164,-321.794 358.8859,-387.5274 97.53954,-36.4774 189.08354,-29.0431 293.35034,23.8229 86.15509,43.683 209.69399,186.6805 246.68009,285.5346 54.0294,144.4064 68.583,386.9637 33.4295,557.152306 -29.5926,143.2675 -62.2932,218.241994 -157.2291,360.488994 l -83.661,125.3533 93.2394,768.78412 c 51.2816,422.8313 90.8212,771.2024 87.8657,774.1578 -2.9555,2.9556 -210.20629,41.5992 -460.55739,85.8748 -250.35104,44.2757 -470.85634,83.6727 -490.01164,87.5492 l -34.8278,7.048 17.6049,-83.1972 z"
         style="opacity:0;fill:#000000;fill-opacity:1;stroke:#ffffff;stroke-width:10;stroke-miterlimit:4;stroke-dasharray:none;stroke-opacity:1" />
      <path
         inkscape:connector-curvature="0"
         id="path5094"
         d="m 134.90657,3044.3376 c -139.5424952,-23.1091 -354.2051,-78.7179 -371.8038,-96.3165 -8.7671,-8.7671 60.3361,-142.7542 206.611305,-400.6083 120.8813,-213.0895 223.829995,-391.4305 228.774895,-396.3134 4.9448,-4.883 213.8442,-45.033 464.2208,-89.2224 250.37664,-44.1894 472.30943,-83.8798 493.18383,-88.2009 35.9832,-7.4486 33.4143,-2.2342 -49.4816,100.4376 -48.0892,59.5618 -87.4351,114.9743 -87.4351,123.1389 0,16.3602 185.1207,-162.1067 224.7092,-216.6326 24.6669,-33.9739 24.5116,-35.2562 -22.3746,-184.7311 -42.3048,-134.8688 -55.023,-214.9529 -122.3149,-770.1954 l -75.1008,-619.67592 81.4659,-120.1563 c 127.316,-187.781796 177.2402,-349.719994 176.8274,-573.5711 -0.2943,-159.7691 -26.4262,-306.1467 -70.0069,-392.1489 -57.5383,-113.5465 -156.4215,-220.9771 -242.13589,-263.0662 -73.9815,-36.3279 -84.0186,-37.6705 -314.23094,-42.033 -205.9525,-3.9028 -253.6766,-0.7823 -356.2672,23.295 -154.3724,36.2301 -258.609895,88.2032 -358.870595,178.934 -108.985605,98.6262 -143.077405,171.4 -170.084505,363.0684 -28.5145,202.367 -18.3366,386.503706 28.2197,510.551104 57.2606,152.568496 125.406005,236.205496 273.255705,335.375296 45.446895,30.4834 84.992495,57.3618 87.879195,59.7297 2.8866,2.368 -86.178795,342.9153 -197.922995,756.77212 l -203.171405,752.4666 -312.4615,312.2582 -312.4616,312.2581 -49.5337,-37.7812 C -1001.0496,2516.7965 -1143.5398,2376.7413 -1229.9699,2272.9753 -1737.274,1663.9175 -1895.7294,844.43368 -1651.1135,94.947484 -1297.1067,-989.70492 -205.19823,-1638.6313 892.04631,-1416.4643 c 205.55709,41.6206 355.44669,93.6876 555.77069,193.0576 219.1712,108.7191 380.7445,227.08898 574.2731,420.71688 470.1763,470.4176 702.7009,1096.3857 657.3123,1769.5183 -68.1936,1011.34432 -791.4433,1844.75972 -1785.77869,2057.78932 -172.4478,36.9459 -589.28014,47.7797 -758.71714,19.7198 z"
         style="opacity:0;fill:#000000;fill-opacity:1;stroke:#000000;stroke-width:39.5852356;stroke-miterlimit:4;stroke-dasharray:none;stroke-opacity:1" />
      <path
         inkscape:connector-curvature="0"
         id="path6530"
         d="m -409.54803,2908.5043 c -168.0598,-73.5964 -442.3845,-233.582 -442.3845,-257.9979 0,-4.5105 140.8413,-149.5139 312.9807,-322.2298 l 312.9806,-314.029 204.100005,-757.46 C 90.383775,840.18448 182.22877,492.94128 182.22877,485.13578 c 0,-7.8055 -33.9498,-34.815 -75.4439,-60.0214 -119.531495,-72.6115 -213.9377,-173.2151 -263.7835,-281.0998 -23.6441,-51.174696 -48.403,-121.591294 -55.0198,-156.481294 -29.3387,-154.702106 -3.658,-490.569206 46.1122,-603.082906 54.5168,-123.2444 207.232605,-245.979 378.9136,-304.5253 125.6064,-42.834 299.1238,-76.1017 392.501,-75.2524 l 63.0224,0.5733 -61.2771,31.8632 c -144.6065,75.1932 -284.4161,270.7001 -321.8012,450 -22.9176,109.9131 -26.6593,538.657806 -5.8844,674.266 19.5507,127.6176 71.2761,231.6392 162.3418,326.4747 l 75.5873,78.7164 -166.4502,781.67352 -166.4503,781.6737 -232.023495,409.0082 c -127.613005,224.9546 -237.563705,410.5301 -244.335005,412.39 -6.7713,1.86 -59.7751,-17.4033 -117.7862,-42.8074 z"
         style="opacity:0;fill:#000000;fill-opacity:1;stroke:#000000;stroke-width:123.11444092;stroke-miterlimit:4;stroke-dasharray:none;stroke-opacity:1" />
      <path
         inkscape:connector-curvature="0"
         id="path6532"
         d="m -409.54803,2908.5043 c -168.0598,-73.5964 -442.3845,-233.582 -442.3845,-257.9979 0,-4.5105 140.8413,-149.5139 312.9807,-322.2298 l 312.9806,-314.029 204.100005,-757.46 C 90.383775,840.18448 182.22877,492.94128 182.22877,485.13578 c 0,-7.8055 -33.9498,-34.815 -75.4439,-60.0214 -119.531495,-72.6115 -213.9377,-173.2151 -263.7835,-281.0998 -23.6441,-51.174696 -48.403,-121.591294 -55.0198,-156.481294 -29.3387,-154.702106 -3.658,-490.569206 46.1122,-603.082906 54.5168,-123.2444 207.232605,-245.979 378.9136,-304.5253 125.6064,-42.834 299.1238,-76.1017 392.501,-75.2524 l 63.0224,0.5733 -61.2771,31.8632 c -144.6065,75.1932 -284.4161,270.7001 -321.8012,450 -22.9176,109.9131 -26.6593,538.657806 -5.8844,674.266 19.5507,127.6176 71.2761,231.6392 162.3418,326.4747 l 75.5873,78.7164 -166.4502,781.67352 -166.4503,781.6737 -232.023495,409.0082 c -127.613005,224.9546 -237.563705,410.5301 -244.335005,412.39 -6.7713,1.86 -59.7751,-17.4033 -117.7862,-42.8074 z"
         style="opacity:0;fill:#000000;fill-opacity:1;stroke:#000000;stroke-width:123.11444092;stroke-miterlimit:4;stroke-dasharray:none;stroke-opacity:1" />
      <path
         inkscape:connector-curvature="0"
         id="path6534"
         d="m -409.54803,2908.5043 c -168.0598,-73.5964 -442.3845,-233.582 -442.3845,-257.9979 0,-4.5105 140.8413,-149.5139 312.9807,-322.2298 l 312.9806,-314.029 204.100005,-757.46 C 90.383775,840.18448 182.22877,492.94128 182.22877,485.13578 c 0,-7.8055 -33.9498,-34.815 -75.4439,-60.0214 -119.531495,-72.6115 -213.9377,-173.2151 -263.7835,-281.0998 -23.6441,-51.174696 -48.403,-121.591294 -55.0198,-156.481294 -29.3387,-154.702106 -3.658,-490.569206 46.1122,-603.082906 54.5168,-123.2444 207.232605,-245.979 378.9136,-304.5253 125.6064,-42.834 299.1238,-76.1017 392.501,-75.2524 l 63.0224,0.5733 -61.2771,31.8632 c -144.6065,75.1932 -284.4161,270.7001 -321.8012,450 -22.9176,109.9131 -26.6593,538.657806 -5.8844,674.266 19.5507,127.6176 71.2761,231.6392 162.3418,326.4747 l 75.5873,78.7164 -166.4502,781.67352 -166.4503,781.6737 -232.023495,409.0082 c -127.613005,224.9546 -237.563705,410.5301 -244.335005,412.39 -6.7713,1.86 -59.7751,-17.4033 -117.7862,-42.8074 z"
         style="opacity:0;fill:#000000;fill-opacity:1;stroke:#000000;stroke-width:123.11444092;stroke-miterlimit:4;stroke-dasharray:none;stroke-opacity:1" />
      <path
         inkscape:connector-curvature="0"
         id="path6536"
         d="m -409.54803,2908.5043 c -168.0598,-73.5964 -442.3845,-233.582 -442.3845,-257.9979 0,-4.5105 140.8413,-149.5139 312.9807,-322.2298 l 312.9806,-314.029 204.100005,-757.46 C 90.383775,840.18448 182.22877,492.94128 182.22877,485.13578 c 0,-7.8055 -33.9498,-34.815 -75.4439,-60.0214 -119.531495,-72.6115 -213.9377,-173.2151 -263.7835,-281.0998 -23.6441,-51.174696 -48.403,-121.591294 -55.0198,-156.481294 -29.3387,-154.702106 -3.658,-490.569206 46.1122,-603.082906 54.5168,-123.2444 207.232605,-245.979 378.9136,-304.5253 125.6064,-42.834 299.1238,-76.1017 392.501,-75.2524 l 63.0224,0.5733 -61.2771,31.8632 c -144.6065,75.1932 -284.4161,270.7001 -321.8012,450 -22.9176,109.9131 -26.6593,538.657806 -5.8844,674.266 19.5507,127.6176 71.2761,231.6392 162.3418,326.4747 l 75.5873,78.7164 -166.4502,781.67352 -166.4503,781.6737 -232.023495,409.0082 c -127.613005,224.9546 -237.563705,410.5301 -244.335005,412.39 -6.7713,1.86 -59.7751,-17.4033 -117.7862,-42.8074 z"
         style="opacity:0;fill:#000000;fill-opacity:1;stroke:#000000;stroke-width:123.11444092;stroke-miterlimit:4;stroke-dasharray:none;stroke-opacity:1" />
      <path
         inkscape:connector-curvature="0"
         id="path6538"
         d="m -409.54803,2908.5043 c -168.0598,-73.5964 -442.3845,-233.582 -442.3845,-257.9979 0,-4.5105 140.8413,-149.5139 312.9807,-322.2298 l 312.9806,-314.029 204.100005,-757.46 C 90.383775,840.18448 182.22877,492.94128 182.22877,485.13578 c 0,-7.8055 -33.9498,-34.815 -75.4439,-60.0214 -119.531495,-72.6115 -213.9377,-173.2151 -263.7835,-281.0998 -23.6441,-51.174696 -48.403,-121.591294 -55.0198,-156.481294 -29.3387,-154.702106 -3.658,-490.569206 46.1122,-603.082906 54.5168,-123.2444 207.232605,-245.979 378.9136,-304.5253 125.6064,-42.834 299.1238,-76.1017 392.501,-75.2524 l 63.0224,0.5733 -61.2771,31.8632 c -144.6065,75.1932 -284.4161,270.7001 -321.8012,450 -22.9176,109.9131 -26.6593,538.657806 -5.8844,674.266 19.5507,127.6176 71.2761,231.6392 162.3418,326.4747 l 75.5873,78.7164 -166.4502,781.67352 -166.4503,781.6737 -232.023495,409.0082 c -127.613005,224.9546 -237.563705,410.5301 -244.335005,412.39 -6.7713,1.86 -59.7751,-17.4033 -117.7862,-42.8074 z"
         style="opacity:0;fill:#ffffff;fill-opacity:1;stroke:#000000;stroke-width:123.11444092;stroke-miterlimit:4;stroke-dasharray:none;stroke-opacity:1" />
      <path
         inkscape:connector-curvature="0"
         id="path6540"
         d="m -409.54803,2908.5043 c -168.0598,-73.5964 -442.3845,-233.582 -442.3845,-257.9979 0,-4.5105 140.8413,-149.5139 312.9807,-322.2298 l 312.9806,-314.029 204.100005,-757.46 C 90.383775,840.18448 182.22877,492.94128 182.22877,485.13578 c 0,-7.8055 -33.9498,-34.815 -75.4439,-60.0214 -119.531495,-72.6115 -213.9377,-173.2151 -263.7835,-281.0998 -23.6441,-51.174696 -48.403,-121.591294 -55.0198,-156.481294 -29.3387,-154.702106 -3.658,-490.569206 46.1122,-603.082906 54.5168,-123.2444 207.232605,-245.979 378.9136,-304.5253 125.6064,-42.834 299.1238,-76.1017 392.501,-75.2524 l 63.0224,0.5733 -61.2771,31.8632 c -144.6065,75.1932 -284.4161,270.7001 -321.8012,450 -22.9176,109.9131 -26.6593,538.657806 -5.8844,674.266 19.5507,127.6176 71.2761,231.6392 162.3418,326.4747 l 75.5873,78.7164 -166.4502,781.67352 -166.4503,781.6737 -232.023495,409.0082 c -127.613005,224.9546 -237.563705,410.5301 -244.335005,412.39 -6.7713,1.86 -59.7751,-17.4033 -117.7862,-42.8074 z"
         style="opacity:0;fill:#ffffff;fill-opacity:1;stroke:#000000;stroke-width:123.11444092;stroke-miterlimit:4;stroke-dasharray:none;stroke-opacity:1" />
      <path
         inkscape:connector-curvature="0"
         id="path6542"
         d="m -409.54803,2908.5043 c -168.0598,-73.5964 -442.3845,-233.582 -442.3845,-257.9979 0,-4.5105 140.8413,-149.5139 312.9807,-322.2298 l 312.9806,-314.029 204.100005,-757.46 C 90.383775,840.18448 182.22877,492.94128 182.22877,485.13578 c 0,-7.8055 -33.9498,-34.815 -75.4439,-60.0214 -119.531495,-72.6115 -213.9377,-173.2151 -263.7835,-281.0998 -23.6441,-51.174696 -48.403,-121.591294 -55.0198,-156.481294 -29.3387,-154.702106 -3.658,-490.569206 46.1122,-603.082906 54.5168,-123.2444 207.232605,-245.979 378.9136,-304.5253 125.6064,-42.834 299.1238,-76.1017 392.501,-75.2524 l 63.0224,0.5733 -61.2771,31.8632 c -144.6065,75.1932 -284.4161,270.7001 -321.8012,450 -22.9176,109.9131 -26.6593,538.657806 -5.8844,674.266 19.5507,127.6176 71.2761,231.6392 162.3418,326.4747 l 75.5873,78.7164 -166.4502,781.67352 -166.4503,781.6737 -232.023495,409.0082 c -127.613005,224.9546 -237.563705,410.5301 -244.335005,412.39 -6.7713,1.86 -59.7751,-17.4033 -117.7862,-42.8074 z"
         style="opacity:0;fill:#ffffff;fill-opacity:1;stroke:#000000;stroke-width:123.11444092;stroke-miterlimit:4;stroke-dasharray:none;stroke-opacity:1" />
      <path
         inkscape:connector-curvature="0"
         id="path6544"
         d="m -409.54803,2908.5043 c -168.0598,-73.5964 -442.3845,-233.582 -442.3845,-257.9979 0,-4.5105 140.8413,-149.5139 312.9807,-322.2298 l 312.9806,-314.029 204.100005,-757.46 C 90.383775,840.18448 182.22877,492.94128 182.22877,485.13578 c 0,-7.8055 -33.9498,-34.815 -75.4439,-60.0214 -119.531495,-72.6115 -213.9377,-173.2151 -263.7835,-281.0998 -23.6441,-51.174696 -48.403,-121.591294 -55.0198,-156.481294 -29.3387,-154.702106 -3.658,-490.569206 46.1122,-603.082906 54.5168,-123.2444 207.232605,-245.979 378.9136,-304.5253 125.6064,-42.834 299.1238,-76.1017 392.501,-75.2524 l 63.0224,0.5733 -61.2771,31.8632 c -144.6065,75.1932 -284.4161,270.7001 -321.8012,450 -22.9176,109.9131 -26.6593,538.657806 -5.8844,674.266 19.5507,127.6176 71.2761,231.6392 162.3418,326.4747 l 75.5873,78.7164 -166.4502,781.67352 -166.4503,781.6737 -232.023495,409.0082 c -127.613005,224.9546 -237.563705,410.5301 -244.335005,412.39 -6.7713,1.86 -59.7751,-17.4033 -117.7862,-42.8074 z"
         style="opacity:0;fill:#ffffff;fill-opacity:1;stroke:#000000;stroke-width:123.11444092;stroke-miterlimit:4;stroke-dasharray:none;stroke-opacity:1" />
      <path
         inkscape:connector-curvature="0"
         id="path6546"
         d="m -409.54803,2908.5043 c -168.0598,-73.5964 -442.3845,-233.582 -442.3845,-257.9979 0,-4.5105 140.8413,-149.5139 312.9807,-322.2298 l 312.9806,-314.029 204.100005,-757.46 C 90.383775,840.18448 182.22877,492.94128 182.22877,485.13578 c 0,-7.8055 -33.9498,-34.815 -75.4439,-60.0214 -119.531495,-72.6115 -213.9377,-173.2151 -263.7835,-281.0998 -23.6441,-51.174696 -48.403,-121.591294 -55.0198,-156.481294 -29.3387,-154.702106 -3.658,-490.569206 46.1122,-603.082906 54.5168,-123.2444 207.232605,-245.979 378.9136,-304.5253 125.6064,-42.834 299.1238,-76.1017 392.501,-75.2524 l 63.0224,0.5733 -61.2771,31.8632 c -144.6065,75.1932 -284.4161,270.7001 -321.8012,450 -22.9176,109.9131 -26.6593,538.657806 -5.8844,674.266 19.5507,127.6176 71.2761,231.6392 162.3418,326.4747 l 75.5873,78.7164 -166.4502,781.67352 -166.4503,781.6737 -232.023495,409.0082 c -127.613005,224.9546 -237.563705,410.5301 -244.335005,412.39 -6.7713,1.86 -59.7751,-17.4033 -117.7862,-42.8074 z"
         style="opacity:0;fill:#ffffff;fill-opacity:1;stroke:#000000;stroke-width:123.11444092;stroke-miterlimit:4;stroke-dasharray:none;stroke-opacity:1" />
      <path
         inkscape:connector-curvature="0"
         id="path6548"
         d="m -409.54803,2908.5043 c -168.0598,-73.5964 -442.3845,-233.582 -442.3845,-257.9979 0,-4.5105 140.8413,-149.5139 312.9807,-322.2298 l 312.9806,-314.029 204.100005,-757.46 C 90.383775,840.18448 182.22877,492.94128 182.22877,485.13578 c 0,-7.8055 -33.9498,-34.815 -75.4439,-60.0214 -119.531495,-72.6115 -213.9377,-173.2151 -263.7835,-281.0998 -23.6441,-51.174696 -48.403,-121.591294 -55.0198,-156.481294 -29.3387,-154.702106 -3.658,-490.569206 46.1122,-603.082906 54.5168,-123.2444 207.232605,-245.979 378.9136,-304.5253 125.6064,-42.834 299.1238,-76.1017 392.501,-75.2524 l 63.0224,0.5733 -61.2771,31.8632 c -144.6065,75.1932 -284.4161,270.7001 -321.8012,450 -22.9176,109.9131 -26.6593,538.657806 -5.8844,674.266 19.5507,127.6176 71.2761,231.6392 162.3418,326.4747 l 75.5873,78.7164 -166.4502,781.67352 -166.4503,781.6737 -232.023495,409.0082 c -127.613005,224.9546 -237.563705,410.5301 -244.335005,412.39 -6.7713,1.86 -59.7751,-17.4033 -117.7862,-42.8074 z"
         style="opacity:0;fill:#ffffff;fill-opacity:1;stroke:#000000;stroke-width:123.11444092;stroke-miterlimit:4;stroke-dasharray:none;stroke-opacity:1" />
      <path
         inkscape:connector-curvature="0"
         id="path6550"
         d="m -409.54803,2908.5043 c -168.0598,-73.5964 -442.3845,-233.582 -442.3845,-257.9979 0,-4.5105 140.8413,-149.5139 312.9807,-322.2298 l 312.9806,-314.029 204.100005,-757.46 C 90.383775,840.18448 182.22877,492.94128 182.22877,485.13578 c 0,-7.8055 -33.9498,-34.815 -75.4439,-60.0214 -119.531495,-72.6115 -213.9377,-173.2151 -263.7835,-281.0998 -23.6441,-51.174696 -48.403,-121.591294 -55.0198,-156.481294 -29.3387,-154.702106 -3.658,-490.569206 46.1122,-603.082906 54.5168,-123.2444 207.232605,-245.979 378.9136,-304.5253 125.6064,-42.834 299.1238,-76.1017 392.501,-75.2524 l 63.0224,0.5733 -61.2771,31.8632 c -144.6065,75.1932 -284.4161,270.7001 -321.8012,450 -22.9176,109.9131 -26.6593,538.657806 -5.8844,674.266 19.5507,127.6176 71.2761,231.6392 162.3418,326.4747 l 75.5873,78.7164 -166.4502,781.67352 -166.4503,781.6737 -232.023495,409.0082 c -127.613005,224.9546 -237.563705,410.5301 -244.335005,412.39 -6.7713,1.86 -59.7751,-17.4033 -117.7862,-42.8074 z"
         style="opacity:0;fill:#ffffff;fill-opacity:1;stroke:#000000;stroke-width:123.11444092;stroke-miterlimit:4;stroke-dasharray:none;stroke-opacity:1" />
      <path
         inkscape:connector-curvature="0"
         id="path6552"
         d="m -409.54803,2908.5043 c -168.0598,-73.5964 -442.3845,-233.582 -442.3845,-257.9979 0,-4.5105 140.8413,-149.5139 312.9807,-322.2298 l 312.9806,-314.029 204.100005,-757.46 C 90.383775,840.18448 182.22877,492.94128 182.22877,485.13578 c 0,-7.8055 -33.9498,-34.815 -75.4439,-60.0214 -119.531495,-72.6115 -213.9377,-173.2151 -263.7835,-281.0998 -23.6441,-51.174696 -48.403,-121.591294 -55.0198,-156.481294 -29.3387,-154.702106 -3.658,-490.569206 46.1122,-603.082906 54.5168,-123.2444 207.232605,-245.979 378.9136,-304.5253 125.6064,-42.834 299.1238,-76.1017 392.501,-75.2524 l 63.0224,0.5733 -61.2771,31.8632 c -144.6065,75.1932 -284.4161,270.7001 -321.8012,450 -22.9176,109.9131 -26.6593,538.657806 -5.8844,674.266 19.5507,127.6176 71.2761,231.6392 162.3418,326.4747 l 75.5873,78.7164 -166.4502,781.67352 -166.4503,781.6737 -232.023495,409.0082 c -127.613005,224.9546 -237.563705,410.5301 -244.335005,412.39 -6.7713,1.86 -59.7751,-17.4033 -117.7862,-42.8074 z"
         style="opacity:0;fill:#ffffff;fill-opacity:1;stroke:#000000;stroke-width:123.11444092;stroke-miterlimit:4;stroke-dasharray:none;stroke-opacity:1" />
      <path
         inkscape:connector-curvature="0"
         id="path6554"
         d="m -409.54803,2908.5043 c -168.0598,-73.5964 -442.3845,-233.582 -442.3845,-257.9979 0,-4.5105 140.8413,-149.5139 312.9807,-322.2298 l 312.9806,-314.029 204.100005,-757.46 C 90.383775,840.18448 182.22877,492.94128 182.22877,485.13578 c 0,-7.8055 -33.9498,-34.815 -75.4439,-60.0214 -119.531495,-72.6115 -213.9377,-173.2151 -263.7835,-281.0998 -23.6441,-51.174696 -48.403,-121.591294 -55.0198,-156.481294 -29.3387,-154.702106 -3.658,-490.569206 46.1122,-603.082906 54.5168,-123.2444 207.232605,-245.979 378.9136,-304.5253 125.6064,-42.834 299.1238,-76.1017 392.501,-75.2524 l 63.0224,0.5733 -61.2771,31.8632 c -144.6065,75.1932 -284.4161,270.7001 -321.8012,450 -22.9176,109.9131 -26.6593,538.657806 -5.8844,674.266 19.5507,127.6176 71.2761,231.6392 162.3418,326.4747 l 75.5873,78.7164 -166.4502,781.67352 -166.4503,781.6737 -232.023495,409.0082 c -127.613005,224.9546 -237.563705,410.5301 -244.335005,412.39 -6.7713,1.86 -59.7751,-17.4033 -117.7862,-42.8074 z"
         style="opacity:0;fill:#ffffff;fill-opacity:1;stroke:#000000;stroke-width:123.11444092;stroke-miterlimit:4;stroke-dasharray:none;stroke-opacity:1" />
      <path
         inkscape:connector-curvature="0"
         id="path6556"
         d="m -409.54803,2908.5043 c -168.0598,-73.5964 -442.3845,-233.582 -442.3845,-257.9979 0,-4.5105 140.8413,-149.5139 312.9807,-322.2298 l 312.9806,-314.029 204.100005,-757.46 C 90.383775,840.18448 182.22877,492.94128 182.22877,485.13578 c 0,-7.8055 -33.9498,-34.815 -75.4439,-60.0214 -119.531495,-72.6115 -213.9377,-173.2151 -263.7835,-281.0998 -23.6441,-51.174696 -48.403,-121.591294 -55.0198,-156.481294 -29.3387,-154.702106 -3.658,-490.569206 46.1122,-603.082906 54.5168,-123.2444 207.232605,-245.979 378.9136,-304.5253 125.6064,-42.834 299.1238,-76.1017 392.501,-75.2524 l 63.0224,0.5733 -61.2771,31.8632 c -144.6065,75.1932 -284.4161,270.7001 -321.8012,450 -22.9176,109.9131 -26.6593,538.657806 -5.8844,674.266 19.5507,127.6176 71.2761,231.6392 162.3418,326.4747 l 75.5873,78.7164 -166.4502,781.67352 -166.4503,781.6737 -232.023495,409.0082 c -127.613005,224.9546 -237.563705,410.5301 -244.335005,412.39 -6.7713,1.86 -59.7751,-17.4033 -117.7862,-42.8074 z"
         style="opacity:0;fill:#ffffff;fill-opacity:1;stroke:#000000;stroke-width:123.11444092;stroke-miterlimit:4;stroke-dasharray:none;stroke-opacity:1" />
      <path
         inkscape:connector-curvature="0"
         id="path6558"
         d="m -409.54803,2908.5043 c -168.0598,-73.5964 -442.3845,-233.582 -442.3845,-257.9979 0,-4.5105 140.8413,-149.5139 312.9807,-322.2298 l 312.9806,-314.029 204.100005,-757.46 C 90.383775,840.18448 182.22877,492.94128 182.22877,485.13578 c 0,-7.8055 -33.9498,-34.815 -75.4439,-60.0214 -119.531495,-72.6115 -213.9377,-173.2151 -263.7835,-281.0998 -23.6441,-51.174696 -48.403,-121.591294 -55.0198,-156.481294 -29.3387,-154.702106 -3.658,-490.569206 46.1122,-603.082906 54.5168,-123.2444 207.232605,-245.979 378.9136,-304.5253 125.6064,-42.834 299.1238,-76.1017 392.501,-75.2524 l 63.0224,0.5733 -61.2771,31.8632 c -144.6065,75.1932 -284.4161,270.7001 -321.8012,450 -22.9176,109.9131 -26.6593,538.657806 -5.8844,674.266 19.5507,127.6176 71.2761,231.6392 162.3418,326.4747 l 75.5873,78.7164 -166.4502,781.67352 -166.4503,781.6737 -232.023495,409.0082 c -127.613005,224.9546 -237.563705,410.5301 -244.335005,412.39 -6.7713,1.86 -59.7751,-17.4033 -117.7862,-42.8074 z"
         style="opacity:0;fill:#ffffff;fill-opacity:1;stroke:#000000;stroke-width:123.11444092;stroke-miterlimit:4;stroke-dasharray:none;stroke-opacity:1" />
      <path
         inkscape:connector-curvature="0"
         id="path6560"
         d="m -409.54803,2908.5043 c -168.0598,-73.5964 -442.3845,-233.582 -442.3845,-257.9979 0,-4.5105 140.8413,-149.5139 312.9807,-322.2298 l 312.9806,-314.029 204.100005,-757.46 C 90.383775,840.18448 182.22877,492.94128 182.22877,485.13578 c 0,-7.8055 -33.9498,-34.815 -75.4439,-60.0214 -119.531495,-72.6115 -213.9377,-173.2151 -263.7835,-281.0998 -23.6441,-51.174696 -48.403,-121.591294 -55.0198,-156.481294 -29.3387,-154.702106 -3.658,-490.569206 46.1122,-603.082906 54.5168,-123.2444 207.232605,-245.979 378.9136,-304.5253 125.6064,-42.834 299.1238,-76.1017 392.501,-75.2524 l 63.0224,0.5733 -61.2771,31.8632 c -144.6065,75.1932 -284.4161,270.7001 -321.8012,450 -22.9176,109.9131 -26.6593,538.657806 -5.8844,674.266 19.5507,127.6176 71.2761,231.6392 162.3418,326.4747 l 75.5873,78.7164 -166.4502,781.67352 -166.4503,781.6737 -232.023495,409.0082 c -127.613005,224.9546 -237.563705,410.5301 -244.335005,412.39 -6.7713,1.86 -59.7751,-17.4033 -117.7862,-42.8074 z"
         style="opacity:0;fill:#ffffff;fill-opacity:1;stroke:#000000;stroke-width:123.11444092;stroke-miterlimit:4;stroke-dasharray:none;stroke-opacity:1" />
      <path
         sodipodi:nodetypes="ssscscccccscs"
         inkscape:connector-curvature="0"
         id="path6564"
         d="m -409.54803,2908.5043 c -168.0598,-73.5964 -442.3845,-233.582 -442.3845,-257.9979 0,-4.5105 140.8413,-149.5139 312.9806,-322.2298 l 312.9807,-314.0297 204.100005,-757.4593 C 90.383911,840.18449 182.22877,492.94158 182.22877,485.13608 -344.64916,269.81733 -530.04942,-1039.8398 860.19744,-961.42069 100.31687,-942.94621 48.588675,268.84206 517.49717,566.5659 l -166.4502,781.6739 -166.4503,781.6737 -232.023495,409.0082 c -127.613005,224.9546 -237.563705,410.5301 -244.335005,412.39 -6.7713,1.86 -59.7751,-17.4033 -117.7862,-42.8074 z"
         style="opacity:1;fill:url(#linearGradient6612);fill-opacity:1;stroke:none;stroke-width:25;stroke-miterlimit:4;stroke-dasharray:none;stroke-opacity:1" />
    </g>
    <path
       style="opacity:1;fill:#ffffff;fill-opacity:1;stroke:#000000;stroke-width:12.31144428;stroke-miterlimit:4;stroke-dasharray:none;stroke-opacity:1"
       d=""
       id="path6566"
       inkscape:connector-curvature="0"
       transform="translate(-5662.5093,-2803.8101)" />
    <path
       style="opacity:1;fill:#ffffff;fill-opacity:1;stroke:#ffffff;stroke-width:2.22150707;stroke-miterlimit:4;stroke-dasharray:none;stroke-opacity:1"
       d=""
       id="path6572"
       inkscape:connector-curvature="0"
       transform="translate(-5662.5093,-2803.8101)" />
    <path
       style="opacity:1;fill:#ffffff;fill-opacity:1;stroke:none;stroke-width:2.22199988;stroke-miterlimit:4;stroke-dasharray:none;stroke-opacity:1"
       d=""
       id="path6574"
       inkscape:connector-curvature="0"
       transform="translate(-5662.5093,-2803.8101)" />
  </g>
</svg>
